<?xml version="1.0" encoding="UTF-8"?>
<!DOCTYPE svg PUBLIC "-//W3C//DTD SVG 1.1//EN" "http://www.w3.org/Graphics/SVG/1.1/DTD/svg11.dtd">
<!-- Creator: CorelDRAW 2020 (64-Bit) -->
<svg xmlns="http://www.w3.org/2000/svg" xml:space="preserve" width="10.2404mm" height="2.4892mm" version="1.1" style="shape-rendering:geometricPrecision; text-rendering:geometricPrecision; image-rendering:optimizeQuality; fill-rule:evenodd; clip-rule:evenodd"
viewBox="0 0 105.7 25.69"
 xmlns:xlink="http://www.w3.org/1999/xlink"
 xmlns:xodm="http://www.corel.com/coreldraw/odm/2003">
 <defs>
  <style type="text/css">
   <![CDATA[
    .fil1 {fill:#42C1C7}
    .fil2 {fill:#424C9D}
    .fil3 {fill:white}
    .fil0 {fill:#424C9D;fill-rule:nonzero}
   ]]>
  </style>
 </defs>
 <g id="Слой_x0020_1">
  <metadata id="CorelCorpID_0Corel-Layer"/>
  <g id="_1942110831056">
   <path class="fil0" d="M65.81 21.91m0.26 -0.98l0 0.85c0,0.04 -0.01,0.07 -0.04,0.1 -0.02,0.02 -0.05,0.04 -0.09,0.04 -0.04,0 -0.07,-0.01 -0.09,-0.04 -0.03,-0.03 -0.04,-0.06 -0.04,-0.1l0 -0.85c0,-0.13 0.02,-0.25 0.07,-0.36 0.05,-0.11 0.11,-0.21 0.19,-0.3 0.08,-0.09 0.17,-0.15 0.28,-0.2 0.11,-0.05 0.23,-0.07 0.36,-0.07 0.13,0 0.25,0.02 0.35,0.07 0.11,0.05 0.2,0.11 0.28,0.2 0.08,0.09 0.14,0.18 0.19,0.3 0.04,0.11 0.06,0.23 0.06,0.36l0 0 0 0.01 0 0.84c0,0.04 -0.01,0.07 -0.04,0.1 -0.02,0.02 -0.05,0.04 -0.09,0.04 -0.04,0 -0.07,-0.01 -0.1,-0.04 -0.03,-0.03 -0.04,-0.06 -0.04,-0.1l0 -0.84c0,-0.01 0,-0.02 0,-0.02 -0,-0.09 -0.02,-0.17 -0.05,-0.26 -0.03,-0.08 -0.08,-0.15 -0.13,-0.21 -0.06,-0.06 -0.12,-0.11 -0.2,-0.14 -0.08,-0.04 -0.16,-0.05 -0.25,-0.05 -0.09,0 -0.18,0.02 -0.25,0.05 -0.08,0.04 -0.14,0.08 -0.2,0.14 -0.06,0.06 -0.1,0.13 -0.13,0.21 -0.03,0.08 -0.05,0.16 -0.05,0.26l0 0.01zm1.83 0.98m0 -0.94c0,-0.13 0.02,-0.26 0.08,-0.38 0.05,-0.12 0.12,-0.22 0.21,-0.31 0.09,-0.09 0.19,-0.16 0.31,-0.21 0.12,-0.05 0.24,-0.08 0.37,-0.08 0.13,0 0.26,0.02 0.37,0.07 0.12,0.05 0.22,0.12 0.3,0.21 0.09,0.08 0.16,0.19 0.21,0.3 0.05,0.12 0.08,0.24 0.08,0.37l0 0 0 0.01 0 0.8c0,0.04 -0.01,0.07 -0.04,0.1 -0.03,0.03 -0.06,0.04 -0.1,0.04 -0.04,0 -0.07,-0.01 -0.09,-0.04 -0.02,-0.02 -0.04,-0.06 -0.04,-0.1l0 -0.16c-0.09,0.1 -0.19,0.18 -0.31,0.24 -0.12,0.06 -0.25,0.09 -0.39,0.09 -0.13,0 -0.26,-0.02 -0.37,-0.08 -0.12,-0.05 -0.22,-0.12 -0.31,-0.21 -0.09,-0.09 -0.16,-0.19 -0.21,-0.31 -0.05,-0.12 -0.08,-0.24 -0.08,-0.38zm0.26 0c0,0.1 0.02,0.19 0.06,0.27 0.04,0.08 0.08,0.16 0.15,0.22 0.06,0.06 0.14,0.11 0.22,0.15 0.08,0.04 0.17,0.06 0.27,0.06 0.1,0 0.19,-0.02 0.28,-0.06 0.09,-0.04 0.16,-0.09 0.22,-0.15 0.07,-0.07 0.11,-0.14 0.15,-0.22 0.04,-0.09 0.05,-0.17 0.05,-0.27 0,-0.1 -0.02,-0.19 -0.05,-0.28 -0.04,-0.09 -0.09,-0.16 -0.15,-0.22 -0.07,-0.07 -0.14,-0.12 -0.22,-0.15 -0.08,-0.04 -0.17,-0.05 -0.28,-0.05 -0.1,0 -0.19,0.02 -0.27,0.05 -0.09,0.04 -0.16,0.09 -0.22,0.15 -0.07,0.06 -0.11,0.14 -0.15,0.22 -0.04,0.08 -0.06,0.18 -0.06,0.28zm2.12 0.94m0.26 -1.89l0.88 0c0.04,0 0.07,0.01 0.09,0.04 0.02,0.03 0.04,0.06 0.04,0.09 0,0.04 -0.01,0.07 -0.04,0.09 -0.02,0.03 -0.06,0.04 -0.09,0.04l-0.88 0 0 0.7c0,0.09 0.02,0.18 0.06,0.27 0.04,0.09 0.08,0.15 0.15,0.22 0.07,0.06 0.14,0.11 0.22,0.15 0.09,0.04 0.18,0.05 0.28,0.05 0.09,0 0.17,-0.01 0.24,-0.04 0.07,-0.02 0.14,-0.07 0.21,-0.13 0.01,-0.01 0.02,-0.01 0.02,-0.02 0.01,-0 0.02,-0.01 0.03,-0.02 0.02,-0.01 0.05,-0.01 0.07,-0.01 0.02,0 0.04,0.01 0.07,0.03 0.02,0.01 0.02,0.03 0.03,0.05 0,0.02 0.01,0.04 0.01,0.06 -0,0.02 -0.01,0.04 -0.02,0.06 -0.01,0.02 -0.02,0.03 -0.03,0.04 -0.08,0.08 -0.18,0.14 -0.28,0.18 -0.11,0.04 -0.22,0.06 -0.34,0.06 -0.13,0 -0.26,-0.02 -0.38,-0.07 -0.12,-0.05 -0.22,-0.12 -0.31,-0.2 -0.09,-0.09 -0.16,-0.19 -0.21,-0.3 -0.05,-0.12 -0.08,-0.24 -0.08,-0.38l0 -1.47c0,-0.04 0.01,-0.07 0.04,-0.09 0.02,-0.03 0.06,-0.04 0.09,-0.04 0.04,0 0.07,0.01 0.09,0.04 0.02,0.03 0.04,0.06 0.04,0.1l0 0.51zm1.7 1.89m0 -2.3c0,-0.05 0.02,-0.08 0.05,-0.12 0.03,-0.03 0.07,-0.04 0.11,-0.04 0.04,0 0.08,0.02 0.11,0.04 0.03,0.03 0.04,0.07 0.04,0.12 0,0.04 -0.02,0.08 -0.04,0.11 -0.03,0.03 -0.07,0.05 -0.11,0.05 -0.02,0 -0.05,-0 -0.06,-0.01 -0.02,-0.01 -0.04,-0.02 -0.05,-0.04 -0.01,-0.01 -0.02,-0.03 -0.03,-0.05 -0.01,-0.02 -0.01,-0.04 -0.01,-0.06zm0.29 2.17c0,0.04 -0.01,0.07 -0.04,0.09 -0.02,0.03 -0.06,0.04 -0.09,0.04 -0.04,0 -0.07,-0.01 -0.09,-0.04 -0.03,-0.02 -0.04,-0.06 -0.04,-0.09l0 -1.62c0,-0.04 0.01,-0.07 0.04,-0.09 0.02,-0.02 0.06,-0.04 0.09,-0.04 0.04,0 0.07,0.02 0.09,0.04 0.02,0.02 0.04,0.06 0.04,0.09l0 1.62zm0.38 0.13m0.26 -0.94c0,0.1 0.02,0.19 0.06,0.27 0.04,0.08 0.08,0.16 0.15,0.22 0.06,0.06 0.14,0.11 0.22,0.15 0.09,0.04 0.17,0.06 0.27,0.06 0.1,0 0.19,-0.02 0.28,-0.06 0.09,-0.04 0.16,-0.09 0.22,-0.15 0.07,-0.07 0.11,-0.14 0.15,-0.22 0.04,-0.09 0.05,-0.17 0.05,-0.27 0,-0.1 -0.02,-0.19 -0.05,-0.28 -0.04,-0.09 -0.09,-0.16 -0.15,-0.22 -0.06,-0.07 -0.14,-0.12 -0.22,-0.15 -0.08,-0.04 -0.17,-0.05 -0.28,-0.05 -0.1,0 -0.19,0.02 -0.27,0.05 -0.08,0.04 -0.16,0.09 -0.22,0.15 -0.07,0.06 -0.11,0.14 -0.15,0.22 -0.04,0.08 -0.06,0.18 -0.06,0.28zm-0.26 0c0,-0.13 0.02,-0.26 0.08,-0.38 0.05,-0.12 0.12,-0.22 0.21,-0.31 0.09,-0.09 0.19,-0.16 0.31,-0.21 0.12,-0.05 0.24,-0.08 0.37,-0.08 0.13,0 0.26,0.02 0.38,0.08 0.12,0.05 0.22,0.12 0.3,0.21 0.09,0.08 0.16,0.19 0.21,0.31 0.05,0.12 0.08,0.24 0.08,0.38 0,0.13 -0.02,0.26 -0.08,0.38 -0.05,0.12 -0.12,0.22 -0.21,0.31 -0.08,0.09 -0.19,0.16 -0.3,0.21 -0.12,0.05 -0.24,0.08 -0.38,0.08 -0.13,0 -0.26,-0.02 -0.37,-0.08 -0.12,-0.05 -0.22,-0.12 -0.31,-0.21 -0.09,-0.09 -0.16,-0.19 -0.21,-0.31 -0.05,-0.12 -0.08,-0.24 -0.08,-0.38zm2.24 0.94m0.26 -0.98l0 0.85c0,0.04 -0.01,0.07 -0.04,0.1 -0.02,0.02 -0.05,0.04 -0.09,0.04 -0.04,0 -0.07,-0.01 -0.09,-0.04 -0.03,-0.03 -0.04,-0.06 -0.04,-0.1l0 -0.85c0,-0.13 0.02,-0.25 0.07,-0.36 0.05,-0.11 0.11,-0.21 0.19,-0.3 0.08,-0.09 0.17,-0.15 0.28,-0.2 0.11,-0.05 0.23,-0.07 0.36,-0.07 0.13,0 0.25,0.02 0.35,0.07 0.11,0.05 0.2,0.11 0.28,0.2 0.08,0.09 0.14,0.18 0.19,0.3 0.04,0.11 0.07,0.23 0.07,0.36l0 0 0 0.01 0 0.84c0,0.04 -0.01,0.07 -0.04,0.1 -0.02,0.02 -0.05,0.04 -0.09,0.04 -0.04,0 -0.07,-0.01 -0.1,-0.04 -0.03,-0.03 -0.04,-0.06 -0.04,-0.1l0 -0.84c0,-0.01 0,-0.02 0,-0.02 -0,-0.09 -0.02,-0.17 -0.05,-0.26 -0.03,-0.08 -0.08,-0.15 -0.13,-0.21 -0.06,-0.06 -0.12,-0.11 -0.2,-0.14 -0.08,-0.04 -0.16,-0.05 -0.25,-0.05 -0.09,0 -0.18,0.02 -0.25,0.05 -0.08,0.04 -0.14,0.08 -0.2,0.14 -0.06,0.06 -0.1,0.13 -0.13,0.21 -0.03,0.08 -0.05,0.16 -0.05,0.26l0 0.01zm1.83 0.98m0 -0.94c0,-0.13 0.02,-0.26 0.08,-0.38 0.05,-0.12 0.12,-0.22 0.21,-0.31 0.09,-0.09 0.19,-0.16 0.31,-0.21 0.12,-0.05 0.24,-0.08 0.37,-0.08 0.13,0 0.26,0.02 0.37,0.07 0.12,0.05 0.22,0.12 0.3,0.21 0.09,0.08 0.16,0.19 0.21,0.3 0.05,0.12 0.08,0.24 0.08,0.37l0 0 0 0.01 0 0.8c0,0.04 -0.01,0.07 -0.04,0.1 -0.03,0.03 -0.06,0.04 -0.1,0.04 -0.04,0 -0.07,-0.01 -0.09,-0.04 -0.02,-0.02 -0.04,-0.06 -0.04,-0.1l0 -0.16c-0.09,0.1 -0.19,0.18 -0.31,0.24 -0.12,0.06 -0.25,0.09 -0.39,0.09 -0.13,0 -0.26,-0.02 -0.37,-0.08 -0.12,-0.05 -0.22,-0.12 -0.31,-0.21 -0.09,-0.09 -0.16,-0.19 -0.21,-0.31 -0.05,-0.12 -0.08,-0.24 -0.08,-0.38zm0.26 0c0,0.1 0.02,0.19 0.06,0.27 0.04,0.08 0.08,0.16 0.15,0.22 0.06,0.06 0.14,0.11 0.22,0.15 0.08,0.04 0.17,0.06 0.27,0.06 0.1,0 0.19,-0.02 0.28,-0.06 0.09,-0.04 0.16,-0.09 0.22,-0.15 0.07,-0.07 0.11,-0.14 0.15,-0.22 0.04,-0.09 0.05,-0.17 0.05,-0.27 0,-0.1 -0.02,-0.19 -0.05,-0.28 -0.04,-0.09 -0.09,-0.16 -0.15,-0.22 -0.07,-0.07 -0.14,-0.12 -0.22,-0.15 -0.08,-0.04 -0.17,-0.05 -0.28,-0.05 -0.1,0 -0.19,0.02 -0.27,0.05 -0.09,0.04 -0.16,0.09 -0.22,0.15 -0.07,0.06 -0.11,0.14 -0.15,0.22 -0.04,0.08 -0.06,0.18 -0.06,0.28zm2.12 0.94m0.78 -0.13c0,0.04 -0.01,0.07 -0.04,0.09 -0.02,0.02 -0.05,0.04 -0.09,0.04l-0 0 -0.01 0c-0.09,0 -0.18,-0.02 -0.26,-0.05 -0.08,-0.03 -0.15,-0.08 -0.2,-0.13 -0.06,-0.06 -0.1,-0.13 -0.13,-0.22 -0.03,-0.08 -0.05,-0.17 -0.05,-0.27l0 -1.81c0,-0.04 0.01,-0.07 0.04,-0.1 0.03,-0.02 0.06,-0.04 0.09,-0.04 0.04,0 0.07,0.01 0.09,0.04 0.03,0.03 0.04,0.06 0.04,0.1l0 1.81c0,0.13 0.04,0.23 0.1,0.3 0.07,0.07 0.16,0.11 0.28,0.11l0.01 0c0.04,0 0.07,0.01 0.09,0.04 0.02,0.02 0.04,0.06 0.04,0.09zm1.23 0.13m0.26 -1.89l0.88 0c0.04,0 0.07,0.01 0.09,0.04 0.02,0.03 0.04,0.06 0.04,0.09 0,0.04 -0.01,0.07 -0.04,0.09 -0.02,0.03 -0.06,0.04 -0.09,0.04l-0.88 0 0 0.7c0,0.09 0.02,0.18 0.06,0.27 0.04,0.09 0.09,0.15 0.15,0.22 0.07,0.06 0.14,0.11 0.22,0.15 0.09,0.04 0.18,0.05 0.28,0.05 0.09,0 0.17,-0.01 0.24,-0.04 0.07,-0.02 0.14,-0.07 0.21,-0.13 0.01,-0.01 0.02,-0.01 0.02,-0.02 0.01,-0 0.02,-0.01 0.03,-0.02 0.02,-0.01 0.04,-0.01 0.07,-0.01 0.02,0 0.04,0.01 0.07,0.03 0.02,0.01 0.02,0.03 0.03,0.05 0,0.02 0.01,0.04 0.01,0.06 -0,0.02 -0.01,0.04 -0.02,0.06 -0.01,0.02 -0.02,0.03 -0.03,0.04 -0.09,0.08 -0.18,0.14 -0.28,0.18 -0.11,0.04 -0.22,0.06 -0.34,0.06 -0.13,0 -0.26,-0.02 -0.38,-0.07 -0.12,-0.05 -0.22,-0.12 -0.31,-0.2 -0.09,-0.09 -0.16,-0.19 -0.21,-0.3 -0.05,-0.12 -0.08,-0.24 -0.08,-0.38l0 -1.47c0,-0.04 0.01,-0.07 0.04,-0.09 0.02,-0.03 0.06,-0.04 0.09,-0.04 0.04,0 0.07,0.01 0.09,0.04 0.02,0.03 0.04,0.06 0.04,0.1l0 0.51zm1.57 1.89m0.26 -0.94c0,0.1 0.02,0.19 0.06,0.27 0.04,0.08 0.09,0.16 0.15,0.22 0.06,0.06 0.14,0.11 0.22,0.15 0.09,0.04 0.17,0.06 0.27,0.06 0.1,0 0.19,-0.02 0.28,-0.06 0.09,-0.04 0.16,-0.09 0.22,-0.15 0.07,-0.07 0.11,-0.14 0.15,-0.22 0.04,-0.09 0.05,-0.17 0.05,-0.27 0,-0.1 -0.02,-0.19 -0.05,-0.28 -0.04,-0.09 -0.09,-0.16 -0.15,-0.22 -0.07,-0.07 -0.14,-0.12 -0.22,-0.15 -0.09,-0.04 -0.17,-0.05 -0.28,-0.05 -0.1,0 -0.19,0.02 -0.27,0.05 -0.08,0.04 -0.16,0.09 -0.22,0.15 -0.07,0.06 -0.11,0.14 -0.15,0.22 -0.04,0.08 -0.06,0.18 -0.06,0.28zm-0.26 0c0,-0.13 0.02,-0.26 0.08,-0.38 0.05,-0.12 0.12,-0.22 0.21,-0.31 0.09,-0.09 0.19,-0.16 0.31,-0.21 0.12,-0.05 0.24,-0.08 0.37,-0.08 0.13,0 0.26,0.02 0.38,0.08 0.12,0.05 0.22,0.12 0.3,0.21 0.09,0.08 0.16,0.19 0.21,0.31 0.05,0.12 0.08,0.24 0.08,0.38 0,0.13 -0.02,0.26 -0.08,0.38 -0.05,0.12 -0.12,0.22 -0.21,0.31 -0.08,0.09 -0.19,0.16 -0.3,0.21 -0.12,0.05 -0.24,0.08 -0.38,0.08 -0.13,0 -0.26,-0.02 -0.37,-0.08 -0.12,-0.05 -0.22,-0.12 -0.31,-0.21 -0.09,-0.09 -0.16,-0.19 -0.21,-0.31 -0.05,-0.12 -0.08,-0.24 -0.08,-0.38zm2.26 0.94m0.26 -0.9c0,0.09 0.02,0.17 0.05,0.25 0.03,0.08 0.08,0.15 0.13,0.21 0.06,0.06 0.13,0.11 0.2,0.15 0.08,0.04 0.17,0.05 0.26,0.05 0.09,0 0.18,-0.02 0.25,-0.05 0.08,-0.04 0.14,-0.08 0.19,-0.15 0.05,-0.07 0.09,-0.13 0.12,-0.22 0.03,-0.08 0.05,-0.17 0.05,-0.26l0 -0.84c0,-0.04 0.01,-0.07 0.04,-0.1 0.02,-0.02 0.06,-0.04 0.09,-0.04 0.04,0 0.07,0.01 0.09,0.04 0.02,0.03 0.04,0.06 0.04,0.1l0 0.84c0,0.13 -0.02,0.25 -0.07,0.37 -0.04,0.11 -0.1,0.21 -0.18,0.3 -0.08,0.08 -0.17,0.15 -0.28,0.2 -0.11,0.05 -0.22,0.07 -0.35,0.07 -0.13,0 -0.25,-0.02 -0.36,-0.07 -0.11,-0.05 -0.21,-0.12 -0.28,-0.2 -0.08,-0.08 -0.15,-0.19 -0.2,-0.3 -0.04,-0.11 -0.07,-0.23 -0.07,-0.36l0 -0.85c0,-0.04 0.01,-0.07 0.04,-0.09 0.02,-0.02 0.05,-0.04 0.09,-0.04 0.04,0 0.07,0.01 0.09,0.04 0.03,0.02 0.04,0.06 0.04,0.09l0 0.85zm1.95 0.9m0.26 -0.13c0,0.04 -0.01,0.07 -0.04,0.1 -0.02,0.02 -0.06,0.04 -0.09,0.04 -0.04,0 -0.07,-0.01 -0.1,-0.04 -0.03,-0.03 -0.04,-0.06 -0.04,-0.1l0 -0.74c0,-0.14 0.03,-0.27 0.08,-0.39 0.05,-0.12 0.12,-0.23 0.22,-0.32 0.09,-0.09 0.2,-0.16 0.32,-0.21 0.12,-0.05 0.25,-0.08 0.39,-0.08l0 0 0.01 0c0.04,0 0.08,0.01 0.1,0.04 0.02,0.02 0.04,0.06 0.04,0.09 0,0.04 -0.02,0.07 -0.04,0.09 -0.03,0.03 -0.06,0.04 -0.1,0.04l-0.01 0 -0 0c-0.1,0 -0.2,0.02 -0.28,0.06 -0.09,0.04 -0.17,0.09 -0.24,0.16 -0.07,0.07 -0.12,0.15 -0.16,0.24 -0.04,0.09 -0.06,0.19 -0.06,0.29l0 0.74zm1.99 0.13m0.26 -0.94c0,0.1 0.02,0.19 0.06,0.27 0.04,0.08 0.08,0.16 0.15,0.22 0.06,0.06 0.14,0.11 0.22,0.15 0.09,0.04 0.17,0.06 0.27,0.06 0.1,0 0.19,-0.02 0.28,-0.06 0.09,-0.04 0.16,-0.09 0.22,-0.15 0.07,-0.07 0.11,-0.14 0.15,-0.22 0.04,-0.09 0.05,-0.17 0.05,-0.27 0,-0.1 -0.02,-0.19 -0.05,-0.28 -0.04,-0.09 -0.09,-0.16 -0.15,-0.22 -0.07,-0.07 -0.14,-0.12 -0.22,-0.15 -0.09,-0.04 -0.17,-0.05 -0.28,-0.05 -0.1,0 -0.19,0.02 -0.27,0.05 -0.08,0.04 -0.16,0.09 -0.22,0.15 -0.07,0.06 -0.11,0.14 -0.15,0.22 -0.04,0.08 -0.06,0.18 -0.06,0.28zm-0.26 0c0,-0.13 0.02,-0.26 0.08,-0.38 0.05,-0.12 0.12,-0.22 0.21,-0.31 0.09,-0.09 0.19,-0.16 0.31,-0.21 0.12,-0.05 0.24,-0.08 0.37,-0.08 0.13,0 0.26,0.02 0.38,0.08 0.12,0.05 0.22,0.12 0.3,0.21 0.09,0.08 0.16,0.19 0.21,0.31 0.05,0.12 0.08,0.24 0.08,0.38 0,0.13 -0.02,0.26 -0.08,0.38 -0.05,0.12 -0.12,0.22 -0.21,0.31 -0.08,0.09 -0.19,0.16 -0.3,0.21 -0.12,0.05 -0.24,0.08 -0.38,0.08 -0.13,0 -0.26,-0.02 -0.37,-0.08 -0.12,-0.05 -0.22,-0.12 -0.31,-0.21 -0.09,-0.09 -0.16,-0.19 -0.21,-0.31 -0.05,-0.12 -0.08,-0.24 -0.08,-0.38zm2.24 0.94m0 -0.94c0,-0.13 0.02,-0.26 0.08,-0.38 0.05,-0.12 0.12,-0.22 0.21,-0.31 0.09,-0.09 0.19,-0.16 0.31,-0.21 0.12,-0.05 0.24,-0.08 0.38,-0.08 0.13,0 0.26,0.02 0.38,0.08 0.12,0.05 0.22,0.12 0.3,0.21 0.09,0.08 0.16,0.19 0.21,0.31 0.05,0.12 0.08,0.24 0.08,0.38 0,0.13 -0.02,0.26 -0.08,0.38 -0.05,0.12 -0.12,0.22 -0.21,0.31 -0.09,0.09 -0.19,0.16 -0.3,0.21 -0.12,0.05 -0.24,0.08 -0.38,0.08 -0.14,0 -0.27,-0.03 -0.39,-0.08 -0.12,-0.06 -0.23,-0.13 -0.32,-0.23l0 0.83c0,0.04 -0.01,0.07 -0.04,0.1 -0.02,0.03 -0.05,0.04 -0.09,0.04 -0.04,0 -0.07,-0.01 -0.09,-0.04 -0.03,-0.02 -0.04,-0.06 -0.04,-0.1l0 -1.49zm0.26 0c0,0.1 0.02,0.19 0.06,0.27 0.04,0.08 0.09,0.16 0.15,0.22 0.06,0.06 0.14,0.11 0.22,0.15 0.08,0.04 0.18,0.06 0.28,0.06 0.1,0 0.19,-0.02 0.28,-0.06 0.09,-0.04 0.16,-0.09 0.22,-0.15 0.07,-0.07 0.11,-0.14 0.15,-0.22 0.04,-0.09 0.05,-0.17 0.05,-0.27 0,-0.1 -0.02,-0.19 -0.05,-0.28 -0.04,-0.09 -0.09,-0.16 -0.15,-0.22 -0.07,-0.07 -0.14,-0.12 -0.22,-0.15 -0.08,-0.04 -0.18,-0.05 -0.28,-0.05 -0.1,0 -0.19,0.02 -0.28,0.05 -0.09,0.04 -0.16,0.09 -0.22,0.15 -0.06,0.06 -0.11,0.14 -0.15,0.22 -0.04,0.08 -0.06,0.18 -0.06,0.28zm1.9 0.94m0.29 -0.82c0.01,0.09 0.03,0.16 0.07,0.24 0.04,0.07 0.09,0.13 0.15,0.18 0.06,0.05 0.13,0.09 0.21,0.13 0.08,0.03 0.16,0.04 0.24,0.04 0.1,0 0.2,-0.02 0.28,-0.06 0.09,-0.04 0.16,-0.09 0.22,-0.16 0.05,-0.03 0.09,-0.04 0.13,-0.03 0.02,0.01 0.04,0.03 0.06,0.05 0.02,0.02 0.02,0.06 0.02,0.09 0,0.03 -0.02,0.07 -0.05,0.09 -0.07,0.08 -0.17,0.15 -0.28,0.2 -0.11,0.05 -0.24,0.08 -0.4,0.08 -0.13,0 -0.26,-0.02 -0.38,-0.08 -0.11,-0.05 -0.22,-0.12 -0.3,-0.21 -0.09,-0.09 -0.16,-0.19 -0.21,-0.31 -0.05,-0.12 -0.07,-0.24 -0.07,-0.38 0,-0.13 0.02,-0.26 0.07,-0.38 0.05,-0.12 0.12,-0.22 0.21,-0.31 0.09,-0.09 0.19,-0.16 0.3,-0.21 0.12,-0.05 0.24,-0.08 0.38,-0.08 0.13,0 0.26,0.02 0.38,0.07 0.12,0.05 0.22,0.12 0.3,0.21 0.09,0.08 0.16,0.19 0.21,0.3 0.05,0.12 0.08,0.24 0.08,0.37 0,0.04 -0.01,0.07 -0.04,0.09 -0.02,0.02 -0.05,0.04 -0.09,0.04l-1.52 0zm1.38 -0.22c-0.01,-0.09 -0.04,-0.17 -0.08,-0.24 -0.04,-0.07 -0.09,-0.13 -0.15,-0.19 -0.07,-0.05 -0.13,-0.09 -0.21,-0.13 -0.08,-0.03 -0.16,-0.04 -0.25,-0.04 -0.09,0 -0.18,0.02 -0.26,0.04 -0.08,0.03 -0.15,0.07 -0.21,0.13 -0.06,0.05 -0.11,0.11 -0.15,0.19 -0.04,0.07 -0.06,0.15 -0.07,0.24l1.38 0zm0.58 1.05m0.26 -0.13c0,0.04 -0.01,0.07 -0.04,0.1 -0.02,0.02 -0.06,0.04 -0.09,0.04 -0.04,0 -0.07,-0.01 -0.1,-0.04 -0.03,-0.03 -0.04,-0.06 -0.04,-0.1l0 -0.74c0,-0.14 0.03,-0.27 0.08,-0.39 0.05,-0.12 0.12,-0.23 0.21,-0.32 0.09,-0.09 0.2,-0.16 0.32,-0.21 0.12,-0.05 0.25,-0.08 0.39,-0.08l0 0 0.01 0c0.04,0 0.08,0.01 0.1,0.04 0.02,0.02 0.04,0.06 0.04,0.09 0,0.04 -0.02,0.07 -0.04,0.09 -0.03,0.03 -0.06,0.04 -0.1,0.04l-0.01 0 -0 0c-0.1,0 -0.2,0.02 -0.28,0.06 -0.09,0.04 -0.17,0.09 -0.24,0.16 -0.07,0.07 -0.12,0.15 -0.16,0.24 -0.04,0.09 -0.06,0.19 -0.06,0.29l0 0.74z"/>
   <path class="fil0" d="M98.07 21.91m0 -0.94c0,-0.13 0.02,-0.26 0.08,-0.38 0.05,-0.12 0.12,-0.22 0.21,-0.31 0.09,-0.09 0.19,-0.16 0.31,-0.21 0.12,-0.05 0.24,-0.08 0.37,-0.08 0.13,0 0.26,0.02 0.37,0.07 0.12,0.05 0.22,0.12 0.3,0.21 0.09,0.08 0.16,0.19 0.21,0.3 0.05,0.12 0.08,0.24 0.08,0.37l0 0 0 0.01 0 0.8c0,0.04 -0.01,0.07 -0.04,0.1 -0.03,0.03 -0.06,0.04 -0.1,0.04 -0.04,0 -0.07,-0.01 -0.09,-0.04 -0.02,-0.02 -0.04,-0.06 -0.04,-0.1l0 -0.16c-0.09,0.1 -0.19,0.18 -0.31,0.24 -0.12,0.06 -0.25,0.09 -0.39,0.09 -0.13,0 -0.26,-0.02 -0.37,-0.08 -0.12,-0.05 -0.22,-0.12 -0.31,-0.21 -0.09,-0.09 -0.16,-0.19 -0.21,-0.31 -0.05,-0.12 -0.08,-0.24 -0.08,-0.38zm0.26 0c0,0.1 0.02,0.19 0.06,0.27 0.04,0.08 0.08,0.16 0.15,0.22 0.06,0.06 0.14,0.11 0.22,0.15 0.08,0.04 0.17,0.06 0.27,0.06 0.1,0 0.19,-0.02 0.28,-0.06 0.09,-0.04 0.16,-0.09 0.22,-0.15 0.07,-0.07 0.11,-0.14 0.15,-0.22 0.04,-0.09 0.05,-0.17 0.05,-0.27 0,-0.1 -0.02,-0.19 -0.05,-0.28 -0.04,-0.09 -0.09,-0.16 -0.15,-0.22 -0.07,-0.07 -0.14,-0.12 -0.22,-0.15 -0.08,-0.04 -0.17,-0.05 -0.28,-0.05 -0.1,0 -0.19,0.02 -0.27,0.05 -0.09,0.04 -0.16,0.09 -0.22,0.15 -0.07,0.06 -0.11,0.14 -0.15,0.22 -0.04,0.08 -0.06,0.18 -0.06,0.28zm2.12 0.94m0.26 -1.89l0.88 0c0.04,0 0.07,0.01 0.09,0.04 0.02,0.03 0.04,0.06 0.04,0.09 0,0.04 -0.01,0.07 -0.04,0.09 -0.02,0.03 -0.06,0.04 -0.09,0.04l-0.88 0 0 0.7c0,0.09 0.02,0.18 0.06,0.27 0.04,0.09 0.08,0.15 0.15,0.22 0.07,0.06 0.14,0.11 0.22,0.15 0.09,0.04 0.18,0.05 0.28,0.05 0.09,0 0.17,-0.01 0.24,-0.04 0.07,-0.02 0.14,-0.07 0.21,-0.13 0.01,-0.01 0.02,-0.01 0.02,-0.02 0.01,-0 0.02,-0.01 0.03,-0.02 0.02,-0.01 0.05,-0.01 0.07,-0.01 0.02,0 0.04,0.01 0.07,0.03 0.02,0.01 0.02,0.03 0.03,0.05 0,0.02 0.01,0.04 0.01,0.06 -0,0.02 -0.01,0.04 -0.02,0.06 -0.01,0.02 -0.02,0.03 -0.03,0.04 -0.08,0.08 -0.18,0.14 -0.28,0.18 -0.11,0.04 -0.22,0.06 -0.34,0.06 -0.13,0 -0.26,-0.02 -0.38,-0.07 -0.12,-0.05 -0.22,-0.12 -0.31,-0.2 -0.09,-0.09 -0.16,-0.19 -0.21,-0.3 -0.05,-0.12 -0.08,-0.24 -0.08,-0.38l0 -1.47c0,-0.04 0.01,-0.07 0.04,-0.09 0.02,-0.03 0.06,-0.04 0.09,-0.04 0.04,0 0.07,0.01 0.09,0.04 0.02,0.03 0.04,0.06 0.04,0.1l0 0.51zm1.57 1.89m0.26 -0.94c0,0.1 0.02,0.19 0.06,0.27 0.04,0.08 0.09,0.16 0.15,0.22 0.06,0.06 0.14,0.11 0.22,0.15 0.08,0.04 0.17,0.06 0.27,0.06 0.1,0 0.19,-0.02 0.28,-0.06 0.09,-0.04 0.16,-0.09 0.22,-0.15 0.07,-0.07 0.11,-0.14 0.15,-0.22 0.04,-0.09 0.05,-0.17 0.05,-0.27 0,-0.1 -0.02,-0.19 -0.05,-0.28 -0.04,-0.09 -0.09,-0.16 -0.15,-0.22 -0.07,-0.07 -0.14,-0.12 -0.22,-0.15 -0.09,-0.04 -0.17,-0.05 -0.28,-0.05 -0.1,0 -0.19,0.02 -0.27,0.05 -0.09,0.04 -0.16,0.09 -0.22,0.15 -0.07,0.06 -0.11,0.14 -0.15,0.22 -0.04,0.08 -0.06,0.18 -0.06,0.28zm-0.26 0c0,-0.13 0.02,-0.26 0.08,-0.38 0.05,-0.12 0.12,-0.22 0.21,-0.31 0.09,-0.09 0.19,-0.16 0.31,-0.21 0.12,-0.05 0.24,-0.08 0.37,-0.08 0.13,0 0.26,0.02 0.38,0.08 0.12,0.05 0.22,0.12 0.3,0.21 0.09,0.08 0.16,0.19 0.21,0.31 0.05,0.12 0.08,0.24 0.08,0.38 0,0.13 -0.02,0.26 -0.08,0.38 -0.05,0.12 -0.12,0.22 -0.21,0.31 -0.09,0.09 -0.19,0.16 -0.3,0.21 -0.12,0.05 -0.24,0.08 -0.38,0.08 -0.13,0 -0.25,-0.02 -0.37,-0.08 -0.12,-0.05 -0.22,-0.12 -0.31,-0.21 -0.09,-0.09 -0.16,-0.19 -0.21,-0.31 -0.05,-0.12 -0.08,-0.24 -0.08,-0.38zm2.26 0.94m0.26 -0.13c0,0.04 -0.01,0.07 -0.04,0.1 -0.02,0.02 -0.06,0.04 -0.09,0.04 -0.04,0 -0.07,-0.01 -0.1,-0.04 -0.03,-0.03 -0.04,-0.06 -0.04,-0.1l0 -0.74c0,-0.14 0.03,-0.27 0.08,-0.39 0.05,-0.12 0.12,-0.23 0.22,-0.32 0.09,-0.09 0.19,-0.16 0.32,-0.21 0.12,-0.05 0.25,-0.08 0.39,-0.08l0 0 0.01 0c0.04,0 0.08,0.01 0.1,0.04 0.02,0.02 0.04,0.06 0.04,0.09 0,0.04 -0.02,0.07 -0.04,0.09 -0.03,0.03 -0.06,0.04 -0.1,0.04l-0.01 0 -0 0c-0.1,0 -0.2,0.02 -0.28,0.06 -0.09,0.04 -0.17,0.09 -0.24,0.16 -0.07,0.07 -0.12,0.15 -0.16,0.24 -0.04,0.09 -0.06,0.19 -0.06,0.29l0 0.74z"/>
   <polygon class="fil1" points="42.61,20.83 47.3,20.83 50.61,24.14 53.92,20.83 58.6,20.83 58.6,16.15 61.92,12.83 58.6,9.52 58.6,4.84 53.92,4.84 50.61,1.53 47.3,4.84 42.61,4.84 42.61,9.52 39.3,12.83 42.61,16.15 "/>
   <path class="fil2" d="M41.53 3.76l5.32 0 3.76 -3.76 3.76 3.76 5.32 0 0 5.32 3.76 3.76 -3.76 3.76 0 5.32 -5.32 0 -3.76 3.76 -3.76 -3.76 -5.32 0 0 -5.32 -3.76 -3.76 3.76 -3.76 0 -5.32zm0.82 0.82l4.84 0 3.42 -3.42 3.42 3.42 4.84 0 0 4.84 3.42 3.42 -3.42 3.42 0 4.84 -4.84 0 -3.42 3.42 -3.42 -3.42 -4.84 0 0 -4.84 -3.42 -3.42 3.42 -3.42 0 -4.84z"/>
   <path class="fil0" d="M50.35 22.81m0.49 -0.63c-0.01,-0.08 -0.02,-0.13 -0.02,-0.18 -0.05,-0.02 -0.11,-0.03 -0.17,-0.03 -0.17,0 -0.27,0.1 -0.27,0.23 0,0.14 0.12,0.2 0.21,0.25 0.1,0.05 0.17,0.09 0.17,0.19 0,0.09 -0.05,0.15 -0.15,0.15 -0.13,0 -0.19,-0.13 -0.22,-0.21l-0.04 0.01c0.01,0.06 0.03,0.18 0.04,0.2 0.01,0.01 0.03,0.02 0.07,0.03 0.03,0.01 0.08,0.02 0.13,0.02 0.18,0 0.29,-0.11 0.29,-0.24 0,-0.14 -0.11,-0.2 -0.22,-0.25 -0.11,-0.05 -0.17,-0.09 -0.17,-0.18 0,-0.07 0.05,-0.14 0.14,-0.14 0.11,0 0.15,0.09 0.17,0.17l0.04 -0.01z"/>
   <path class="fil0" d="M50.15 4.15m0.91 -0.81l-0.3 0 0 0.04c0.09,0 0.12,0.02 0.12,0.08 0,0.04 0.01,0.09 0.01,0.21l0 0.29 -0 0 -0.54 -0.61 -0.2 0 0 0.04c0.06,0 0.08,0.01 0.11,0.05 0.02,0.03 0.03,0.04 0.03,0.13l0 0.27c0,0.12 -0.01,0.17 -0.01,0.21 -0.01,0.06 -0.04,0.08 -0.11,0.08l0 0.04 0.3 0 0 -0.04c-0.09,-0.01 -0.12,-0.02 -0.12,-0.09 -0,-0.04 -0.01,-0.09 -0.01,-0.21l0 -0.3 0 0 0.56 0.65 0.04 0 0 -0.5c0,-0.12 0,-0.17 0.01,-0.21 0.01,-0.06 0.04,-0.07 0.11,-0.07l0 -0.04z"/>
   <path class="fil0" d="M40.86 13.25m1.23 -0.82l-0.29 0 0 0.04c0.1,0.01 0.11,0.03 0.09,0.1 -0.02,0.08 -0.09,0.33 -0.15,0.5l-0 0c-0.08,-0.21 -0.16,-0.42 -0.23,-0.62l-0.04 0c-0.07,0.2 -0.14,0.41 -0.21,0.62l-0 0c-0.06,-0.17 -0.11,-0.34 -0.16,-0.51 -0.02,-0.07 -0.02,-0.08 0.08,-0.09l0 -0.04 -0.33 0 0 0.04c0.08,0.01 0.1,0.02 0.13,0.13 0.07,0.22 0.15,0.44 0.22,0.67l0.04 0c0.07,-0.2 0.14,-0.4 0.21,-0.62l0 0c0.07,0.18 0.15,0.42 0.23,0.62l0.05 0c0.11,-0.35 0.19,-0.59 0.22,-0.67 0.04,-0.11 0.05,-0.12 0.14,-0.13l0 -0.04z"/>
   <path class="fil0" d="M59.77 13.26m0.64 -0.21c-0.02,0.05 -0.04,0.09 -0.07,0.12 -0.03,0.03 -0.07,0.04 -0.16,0.04 -0.06,0 -0.11,0 -0.13,-0.01 -0.02,-0.02 -0.03,-0.04 -0.03,-0.1l0 -0.23 0.12 0c0.11,0 0.12,0.01 0.14,0.1l0.04 0 0 -0.25 -0.04 0c-0.02,0.08 -0.02,0.1 -0.14,0.1l-0.12 0 0 -0.28c0,-0.04 0,-0.04 0.04,-0.04l0.1 0c0.09,0 0.12,0.01 0.14,0.04 0.02,0.03 0.03,0.06 0.04,0.11l0.04 -0.01c-0.01,-0.07 -0.01,-0.15 -0.01,-0.19l-0.59 0 0 0.04c0.1,0.01 0.11,0.01 0.11,0.13l0 0.5c0,0.1 -0.01,0.11 -0.13,0.12l0 0.04 0.63 0c0.01,-0.04 0.04,-0.16 0.04,-0.21l-0.04 -0.01z"/>
   <path class="fil2" d="M50.61 7.57c2.92,0 5.28,2.36 5.28,5.28 0,2.92 -2.36,5.28 -5.28,5.28 -2.91,0 -5.28,-2.36 -5.28,-5.28 0,-2.91 2.36,-5.28 5.28,-5.28zm0 0.43c2.68,0 4.85,2.17 4.85,4.85 0,2.68 -2.17,4.85 -4.85,4.85 -2.68,0 -4.85,-2.17 -4.85,-4.85 0,-2.68 2.17,-4.85 4.85,-4.85z"/>
   <path class="fil2" d="M50.61 8.92c2.17,0 3.93,1.76 3.93,3.93 0,2.17 -1.76,3.93 -3.93,3.93 -2.17,0 -3.93,-1.76 -3.93,-3.93 0,-2.17 1.76,-3.93 3.93,-3.93zm0 0.2c2.06,0 3.73,1.67 3.73,3.73 0,2.06 -1.67,3.73 -3.73,3.73 -2.06,0 -3.73,-1.67 -3.73,-3.73 0,-2.06 1.67,-3.73 3.73,-3.73z"/>
   <polygon class="fil3" points="49.72,11.26 50.56,5.26 51.48,11.27 50.61,12.85 "/>
   <polygon class="fil3" points="51.45,14.36 50.73,20.43 49.76,14.43 50.61,12.85 "/>
   <polygon class="fil3" points="52.12,12 58.2,12.88 52.18,13.74 50.61,12.85 "/>
   <polygon class="fil3" points="49.12,13.71 43.03,12.88 49.05,11.97 50.61,12.85 "/>
   <polygon class="fil2" points="50.56,5.26 51.48,11.27 50.61,12.85 "/>
   <polygon class="fil2" points="50.73,20.43 49.76,14.43 50.61,12.85 "/>
   <polygon class="fil2" points="58.2,12.88 52.18,13.74 50.61,12.85 "/>
   <polygon class="fil2" points="43.03,12.88 49.05,11.97 50.61,12.85 "/>
   <polygon class="fil3" points="52.12,12 50.61,12.85 51.48,11.27 54.02,9.39 "/>
   <polygon class="fil3" points="49.12,13.71 50.61,12.85 49.76,14.43 47.24,16.33 "/>
   <polygon class="fil3" points="51.45,14.36 50.61,12.85 52.18,13.74 54.03,16.29 "/>
   <polygon class="fil3" points="49.77,11.34 50.61,12.85 49.05,11.97 47.17,9.43 "/>
   <polygon class="fil2" points="54.02,9.39 52.12,12 50.61,12.85 "/>
   <polygon class="fil2" points="47.24,16.33 49.12,13.71 50.61,12.85 "/>
   <polygon class="fil2" points="54.03,16.29 51.45,14.36 50.61,12.85 "/>
   <polygon class="fil2" points="47.17,9.43 49.72,11.26 50.61,12.85 "/>
   <path class="fil0" d="M-0 16.97m5.22 -7.07l-2.1 3.98 4.2 0 -2.09 -3.98zm3.72 7.07l-0.96 -1.84 -5.54 0 -0.95 1.84 -1.49 0 4.36 -8.24 1.72 0 4.36 8.24 -1.49 0z"/>
   <path class="fil0" d="M10.65 16.97m8.07 -6.3c-0.61,-0.32 -1.23,-0.56 -1.83,-0.7 -0.61,-0.15 -1.25,-0.23 -1.9,-0.23 -0.85,0 -1.5,0.1 -1.95,0.3 -0.44,0.21 -0.66,0.48 -0.66,0.82 0,0.36 0.24,0.63 0.72,0.8 0.23,0.08 0.48,0.14 0.76,0.17 0.27,0.03 0.58,0.07 0.91,0.08 0.33,0.02 0.68,0.05 1.06,0.07 0.38,0.02 0.77,0.06 1.2,0.11 1.04,0.12 1.8,0.38 2.29,0.75 0.49,0.37 0.74,0.9 0.74,1.59 0,0.88 -0.38,1.55 -1.14,2.03 -0.76,0.48 -1.89,0.72 -3.36,0.72 -1.06,0 -1.98,-0.11 -2.79,-0.34 -0.81,-0.22 -1.51,-0.57 -2.12,-1.05l0.75 -0.99c0.67,0.41 1.34,0.71 2.01,0.9 0.67,0.19 1.39,0.28 2.15,0.28 0.99,0 1.73,-0.14 2.24,-0.4 0.51,-0.26 0.76,-0.61 0.76,-1.06 0,-0.3 -0.08,-0.52 -0.25,-0.68 -0.17,-0.16 -0.42,-0.28 -0.75,-0.36 -0.33,-0.08 -0.73,-0.15 -1.2,-0.18 -0.48,-0.03 -1.02,-0.07 -1.63,-0.1 -0.64,-0.05 -1.19,-0.11 -1.66,-0.19 -0.48,-0.08 -0.88,-0.19 -1.19,-0.35 -0.32,-0.16 -0.56,-0.36 -0.72,-0.63 -0.16,-0.26 -0.24,-0.58 -0.24,-0.98 0,-0.77 0.35,-1.39 1.07,-1.83 0.72,-0.44 1.74,-0.67 3.08,-0.67 1.77,0 3.26,0.41 4.46,1.22l-0.83 0.92zm3.47 6.3m0 0l0 -8.24 1.36 0 0 8.24 -1.36 0z"/>
   <path class="fil0" d="M25.01 16.97m5.22 -7.07l-2.1 3.98 4.2 0 -2.09 -3.98zm3.72 7.07l-0.95 -1.84 -5.54 0 -0.96 1.84 -1.49 0 4.36 -8.24 1.72 0 4.36 8.24 -1.49 0z"/>
   <path class="fil0" d="M65.79 16.84m0 0l0 -8.24 1.37 0 0 7 6.36 0 0 1.24 -7.72 0z"/>
   <path class="fil0" d="M74.89 16.84m9.33 -2.66c0,0.42 -0.1,0.81 -0.32,1.16 -0.22,0.35 -0.53,0.66 -0.93,0.92 -0.4,0.26 -0.89,0.47 -1.46,0.61 -0.58,0.15 -1.23,0.22 -1.94,0.22 -0.72,0 -1.37,-0.07 -1.95,-0.22 -0.58,-0.16 -1.08,-0.35 -1.48,-0.61 -0.4,-0.26 -0.7,-0.57 -0.92,-0.92 -0.22,-0.35 -0.33,-0.74 -0.33,-1.16l0 -5.57 1.36 0 0 5.26c0,0.64 0.28,1.14 0.84,1.48 0.56,0.34 1.38,0.51 2.47,0.51 1.08,0 1.9,-0.17 2.46,-0.51 0.56,-0.34 0.83,-0.84 0.83,-1.48l0 -5.26 1.37 0 0 5.57z"/>
   <path class="fil0" d="M85.32 16.84m8.41 0l-3.32 -3.32 -3.31 3.32 -1.77 0 4.2 -4.18 -4.05 -4.06 1.77 0 3.18 3.21 3.16 -3.21 1.77 0 -4.05 4.06 4.2 4.18 -1.77 0zm3.3 0m0 0l0 -8.24 8.3 0 0 1.24 -6.94 0 0 2.1 4.82 0 0 1.24 -4.82 0 0 2.41 7.26 0 0 1.24 -8.62 0z"/>
  </g>
 </g>
</svg>
